<?xml version="1.0" encoding="utf-8"?>
<!-- Generator: Adobe Illustrator 16.0.0, SVG Export Plug-In . SVG Version: 6.00 Build 0)  -->
<!DOCTYPE svg PUBLIC "-//W3C//DTD SVG 1.1//EN" "http://www.w3.org/Graphics/SVG/1.1/DTD/svg11.dtd">
<svg version="1.1" id="Layer_1" xmlns="http://www.w3.org/2000/svg" xmlns:xlink="http://www.w3.org/1999/xlink" x="0px" y="0px"
	 width="1728px" height="864px" viewBox="0 0 1728 864" enable-background="new 0 0 1728 864" xml:space="preserve">
<g>
	<g id="CIRCLE">
		
			<path fill="none" stroke="#FF0000" stroke-width="0.001" stroke-linecap="round" stroke-linejoin="round" stroke-miterlimit="10" d="
			M279.499,234.507c0-16.9-13.699-30.6-30.6-30.6c-16.9,0-30.6,13.7-30.6,30.6c0,16.9,13.7,30.6,30.6,30.6
			C265.8,265.106,279.499,251.407,279.499,234.507L279.499,234.507z"/>
	</g>
	<g id="LWPOLYLINE">
		
			<rect x="38.427" y="18.507" fill="none" stroke="#FF0000" stroke-width="0.001" stroke-linecap="round" stroke-linejoin="round" stroke-miterlimit="10" width="420.945" height="432"/>
	</g>
</g>
<g>
	<g id="CIRCLE_1_">
		
			<path fill="none" stroke="#FF0000" stroke-width="0.001" stroke-linecap="round" stroke-linejoin="round" stroke-miterlimit="10" d="
			M714.727,234.507c0-16.9-13.699-30.6-30.6-30.6c-16.9,0-30.6,13.7-30.6,30.6c0,16.9,13.7,30.6,30.6,30.6
			C701.027,265.106,714.727,251.407,714.727,234.507L714.727,234.507z"/>
	</g>
	<g id="LWPOLYLINE_1_">
		
			<rect x="473.654" y="18.507" fill="none" stroke="#FF0000" stroke-width="0.001" stroke-linecap="round" stroke-linejoin="round" stroke-miterlimit="10" width="420.945" height="432"/>
	</g>
</g>
<g>
	<g id="LWPOLYLINE_3_">
		
			<path fill="none" stroke="#FF0000" stroke-width="0.001" stroke-linecap="round" stroke-linejoin="round" stroke-miterlimit="10" d="
			M1599.091,281.987c1.121-1.329,2.352-2.562,3.682-3.682c12.924-10.89,32.229-9.241,43.119,3.682
			c10.889,12.924,9.24,32.229-3.684,43.118c-12.922,10.89-32.228,9.241-43.117-3.682V281.987z"/>
	</g>
	<g id="CIRCLE_2_">
		
			<path fill="none" stroke="#FF0000" stroke-width="0.001" stroke-linecap="round" stroke-linejoin="round" stroke-miterlimit="10" d="
			M1622.491,144.206c-7.457,0-13.5,6.044-13.5,13.5c0,7.455,6.043,13.5,13.5,13.5c7.455,0,13.5-6.045,13.5-13.5
			C1635.991,150.25,1629.946,144.206,1622.491,144.206L1622.491,144.206z"/>
	</g>
	<g id="LWPOLYLINE_2_">
		
			<path fill="none" stroke="#FF0000" stroke-width="0.001" stroke-linecap="round" stroke-linejoin="round" stroke-miterlimit="10" d="
			M1692.204,283.705c3.049,11.807,3.049,24.193,0,36c-9.941,38.502-49.211,61.655-87.713,51.714
			c-38.502-9.94-61.655-49.212-51.715-87.714l34.857-134.999c3.274-12.681,13.176-22.583,25.857-25.858
			c19.25-4.971,38.887,6.606,43.855,25.858L1692.204,283.705z"/>
	</g>
</g>
<g>
	<g id="LWPOLYLINE_4_">
		
			<rect x="978.236" y="55.227" fill="none" stroke="#FF0000" stroke-width="0.001" stroke-linecap="round" stroke-linejoin="round" stroke-miterlimit="10" width="12.473" height="432"/>
	</g>
	<g id="CIRCLE_6_">
		
			<path fill="none" stroke="#FF0000" stroke-width="0.001" stroke-linecap="round" stroke-linejoin="round" stroke-miterlimit="10" d="
			M1032.469,496.588c0-3.182-2.579-5.762-5.76-5.762c-3.182,0-5.76,2.58-5.76,5.762c0,3.18,2.578,5.76,5.76,5.76
			C1029.89,502.348,1032.469,499.768,1032.469,496.588L1032.469,496.588z"/>
	</g>
	<g id="CIRCLE_5_">
		
			<path fill="none" stroke="#FF0000" stroke-width="0.001" stroke-linecap="round" stroke-linejoin="round" stroke-miterlimit="10" d="
			M947.996,496.588c0-3.182-2.578-5.762-5.76-5.762s-5.76,2.58-5.76,5.762c0,3.18,2.578,5.76,5.76,5.76
			S947.996,499.768,947.996,496.588L947.996,496.588z"/>
	</g>
	<g id="CIRCLE_4_">
		
			<path fill="none" stroke="#FF0000" stroke-width="0.001" stroke-linecap="round" stroke-linejoin="round" stroke-miterlimit="10" d="
			M1032.469,45.867c0-3.181-2.579-5.76-5.76-5.76c-3.182,0-5.76,2.579-5.76,5.76s2.578,5.76,5.76,5.76
			C1029.89,51.627,1032.469,49.048,1032.469,45.867L1032.469,45.867z"/>
	</g>
	<g id="CIRCLE_3_">
		
			<path fill="none" stroke="#FF0000" stroke-width="0.001" stroke-linecap="round" stroke-linejoin="round" stroke-miterlimit="10" d="
			M947.996,45.867c0-3.181-2.578-5.76-5.76-5.76s-5.76,2.579-5.76,5.76s2.578,5.76,5.76,5.76S947.996,49.048,947.996,45.867
			L947.996,45.867z"/>
	</g>
	<g id="LINE">
		
			<line fill="none" stroke="#FF0000" stroke-width="0.001" stroke-linecap="round" stroke-linejoin="round" stroke-miterlimit="10" x1="906.236" y1="18.507" x2="906.236" y2="73.227"/>
	</g>
	<g id="SPLINE">
		
			<polyline fill="none" stroke="#FF0000" stroke-width="0.001" stroke-linecap="round" stroke-linejoin="round" stroke-miterlimit="10" points="
			906.236,73.227 918.691,112.827 928.697,152.427 936.098,192.027 940.679,231.627 942.236,271.227 940.679,310.827 
			936.098,350.427 928.697,390.027 918.691,429.627 906.236,469.227 		"/>
	</g>
	<g id="LINE_1_">
		
			<line fill="none" stroke="#FF0000" stroke-width="0.001" stroke-linecap="round" stroke-linejoin="round" stroke-miterlimit="10" x1="906.236" y1="469.227" x2="906.236" y2="523.947"/>
	</g>
	<g id="LINE_2_">
		
			<line fill="none" stroke="#FF0000" stroke-width="0.001" stroke-linecap="round" stroke-linejoin="round" stroke-miterlimit="10" x1="906.236" y1="523.947" x2="1062.709" y2="523.947"/>
	</g>
	<g id="LINE_3_">
		
			<line fill="none" stroke="#FF0000" stroke-width="0.001" stroke-linecap="round" stroke-linejoin="round" stroke-miterlimit="10" x1="1062.709" y1="523.947" x2="1062.709" y2="469.227"/>
	</g>
	<g id="SPLINE_1_">
		
			<polyline fill="none" stroke="#FF0000" stroke-width="0.001" stroke-linecap="round" stroke-linejoin="round" stroke-miterlimit="10" points="
			1062.709,469.227 1050.254,429.627 1040.248,390.027 1032.848,350.427 1028.267,310.827 1026.709,271.227 1028.267,231.627 
			1032.848,192.027 1040.248,152.427 1050.254,112.827 1062.709,73.227 		"/>
	</g>
	<g id="LINE_4_">
		
			<line fill="none" stroke="#FF0000" stroke-width="0.001" stroke-linecap="round" stroke-linejoin="round" stroke-miterlimit="10" x1="1062.709" y1="73.227" x2="1062.709" y2="18.507"/>
	</g>
	<g id="LINE_5_">
		
			<line fill="none" stroke="#FF0000" stroke-width="0.001" stroke-linecap="round" stroke-linejoin="round" stroke-miterlimit="10" x1="1062.709" y1="18.507" x2="906.236" y2="18.507"/>
	</g>
</g>
<g>
	<g id="LWPOLYLINE_5_">
		
			<rect x="1145" y="55.228" fill="none" stroke="#FF0000" stroke-width="0.001" stroke-linecap="round" stroke-linejoin="round" stroke-miterlimit="10" width="12.473" height="432"/>
	</g>
	<g id="CIRCLE_10_">
		
			<path fill="none" stroke="#FF0000" stroke-width="0.001" stroke-linecap="round" stroke-linejoin="round" stroke-miterlimit="10" d="
			M1199.232,496.588c0-3.182-2.579-5.761-5.76-5.761c-3.182,0-5.76,2.579-5.76,5.761c0,3.181,2.578,5.76,5.76,5.76
			C1196.653,502.348,1199.232,499.769,1199.232,496.588L1199.232,496.588z"/>
	</g>
	<g id="CIRCLE_9_">
		
			<path fill="none" stroke="#FF0000" stroke-width="0.001" stroke-linecap="round" stroke-linejoin="round" stroke-miterlimit="10" d="
			M1114.76,496.588c0-3.182-2.578-5.761-5.76-5.761s-5.76,2.579-5.76,5.761c0,3.181,2.578,5.76,5.76,5.76
			S1114.76,499.769,1114.76,496.588L1114.76,496.588z"/>
	</g>
	<g id="CIRCLE_8_">
		
			<path fill="none" stroke="#FF0000" stroke-width="0.001" stroke-linecap="round" stroke-linejoin="round" stroke-miterlimit="10" d="
			M1199.232,45.868c0-3.181-2.579-5.76-5.76-5.76c-3.182,0-5.76,2.579-5.76,5.76s2.578,5.76,5.76,5.76
			C1196.653,51.627,1199.232,49.049,1199.232,45.868L1199.232,45.868z"/>
	</g>
	<g id="CIRCLE_7_">
		
			<path fill="none" stroke="#FF0000" stroke-width="0.001" stroke-linecap="round" stroke-linejoin="round" stroke-miterlimit="10" d="
			M1114.76,45.868c0-3.181-2.578-5.76-5.76-5.76s-5.76,2.579-5.76,5.76s2.578,5.76,5.76,5.76S1114.76,49.049,1114.76,45.868
			L1114.76,45.868z"/>
	</g>
	<g id="LINE_11_">
		
			<line fill="none" stroke="#FF0000" stroke-width="0.001" stroke-linecap="round" stroke-linejoin="round" stroke-miterlimit="10" x1="1073" y1="18.507" x2="1073" y2="73.228"/>
	</g>
	<g id="SPLINE_3_">
		
			<polyline fill="none" stroke="#FF0000" stroke-width="0.001" stroke-linecap="round" stroke-linejoin="round" stroke-miterlimit="10" points="
			1073,73.228 1085.455,112.828 1095.461,152.428 1102.861,192.027 1107.442,231.627 1109,271.228 1107.442,310.827 
			1102.861,350.428 1095.461,390.027 1085.455,429.628 1073,469.228 		"/>
	</g>
	<g id="LINE_10_">
		
			<line fill="none" stroke="#FF0000" stroke-width="0.001" stroke-linecap="round" stroke-linejoin="round" stroke-miterlimit="10" x1="1073" y1="469.228" x2="1073" y2="523.947"/>
	</g>
	<g id="LINE_9_">
		
			<line fill="none" stroke="#FF0000" stroke-width="0.001" stroke-linecap="round" stroke-linejoin="round" stroke-miterlimit="10" x1="1073" y1="523.947" x2="1229.473" y2="523.947"/>
	</g>
	<g id="LINE_8_">
		
			<line fill="none" stroke="#FF0000" stroke-width="0.001" stroke-linecap="round" stroke-linejoin="round" stroke-miterlimit="10" x1="1229.473" y1="523.947" x2="1229.473" y2="469.228"/>
	</g>
	<g id="SPLINE_2_">
		
			<polyline fill="none" stroke="#FF0000" stroke-width="0.001" stroke-linecap="round" stroke-linejoin="round" stroke-miterlimit="10" points="
			1229.473,469.228 1217.018,429.628 1207.012,390.027 1199.611,350.428 1195.03,310.827 1193.473,271.228 1195.03,231.627 
			1199.611,192.027 1207.012,152.428 1217.018,112.828 1229.473,73.228 		"/>
	</g>
	<g id="LINE_7_">
		
			<line fill="none" stroke="#FF0000" stroke-width="0.001" stroke-linecap="round" stroke-linejoin="round" stroke-miterlimit="10" x1="1229.473" y1="73.228" x2="1229.473" y2="18.507"/>
	</g>
	<g id="LINE_6_">
		
			<line fill="none" stroke="#FF0000" stroke-width="0.001" stroke-linecap="round" stroke-linejoin="round" stroke-miterlimit="10" x1="1229.473" y1="18.507" x2="1073" y2="18.507"/>
	</g>
</g>
<g>
	<g id="CIRCLE_11_">
		
			<path fill="none" stroke="#FF0000" stroke-width="0.001" stroke-linecap="round" stroke-linejoin="round" stroke-miterlimit="10" d="
			M118.037,747.901c0-16.899-13.699-30.6-30.6-30.6c-16.9,0-30.6,13.7-30.6,30.6c0,16.9,13.7,30.601,30.6,30.601
			C104.338,778.502,118.037,764.802,118.037,747.901L118.037,747.901z"/>
	</g>
	<g id="LWPOLYLINE_6_">
		
			<path fill="none" stroke="#FF0000" stroke-width="0.001" stroke-linecap="round" stroke-linejoin="round" stroke-miterlimit="10" d="
			M143.528,723.422c6.813,15.608,6.813,33.351,0,48.96c-13.521,30.978-49.593,45.13-80.571,31.61s-45.131-49.593-31.611-80.57
			l39.594-90.72c1.815-4.161,5.137-7.482,9.297-9.298c9.111-3.977,19.721,0.187,23.697,9.298L143.528,723.422z"/>
	</g>
</g>
<g>
	<g id="CIRCLE_13_">
		
			<path fill="none" stroke="#FF0000" stroke-width="0.001" stroke-linecap="round" stroke-linejoin="round" stroke-miterlimit="10" d="
			M1434.195,652.138c0-16.9-13.699-30.6-30.6-30.6c-16.899,0-30.6,13.699-30.6,30.6s13.7,30.6,30.6,30.6
			C1420.496,682.737,1434.195,669.038,1434.195,652.138L1434.195,652.138z"/>
	</g>
	<g id="CIRCLE_12_">
		
			<path fill="none" stroke="#FF0000" stroke-width="0.001" stroke-linecap="round" stroke-linejoin="round" stroke-miterlimit="10" d="
			M1493.596,616.138c0-49.705-40.293-90-90-90c-49.705,0-90,40.295-90,90c0,49.706,40.295,90,90,90
			C1453.303,706.138,1493.596,665.844,1493.596,616.138L1493.596,616.138z"/>
	</g>
</g>
<g>
	<g id="CIRCLE_14_">
		
			<path fill="none" stroke="#FF0000" stroke-width="0.001" stroke-linecap="round" stroke-linejoin="round" stroke-miterlimit="10" d="
			M935.689,714.388c0-16.899-13.699-30.6-30.6-30.6s-30.6,13.7-30.6,30.6c0,16.9,13.699,30.601,30.6,30.601
			S935.689,731.288,935.689,714.388L935.689,714.388z"/>
	</g>
	<g id="LWPOLYLINE_7_">
		
			<path fill="none" stroke="#FF0000" stroke-width="0.001" stroke-linecap="round" stroke-linejoin="round" stroke-miterlimit="10" d="
			M905.09,593.7c0-2.834,0.965-5.582,2.734-7.794c4.305-5.378,12.154-6.249,17.531-1.944
			c44.266,35.427,63.623,93.531,49.447,148.426c-8.207,31.79-36.881,54-69.713,54c-39.764,0-72-32.235-72-72
			c0-39.764,32.236-72,72-72V593.7z"/>
	</g>
</g>
<g>
	<g id="CIRCLE_15_">
		
			<path fill="none" stroke="#FF0000" stroke-width="0.001" stroke-linecap="round" stroke-linejoin="round" stroke-miterlimit="10" d="
			M667.357,771.592c16.9,0,30.6-13.699,30.6-30.6s-13.699-30.6-30.6-30.6s-30.6,13.699-30.6,30.6S650.457,771.592,667.357,771.592
			L667.357,771.592z"/>
	</g>
	<g id="LWPOLYLINE_8_">
		
			<path fill="none" stroke="#FF0000" stroke-width="0.001" stroke-linecap="round" stroke-linejoin="round" stroke-miterlimit="10" d="
			M788.045,740.992c2.834,0,5.582,0.965,7.794,2.734c5.378,4.305,6.249,12.154,1.944,17.531
			c-35.427,44.266-93.531,63.623-148.426,49.447c-31.789-8.207-54-36.881-54-69.713c0-39.764,32.236-72,72-72s72,32.236,72,72
			H788.045z"/>
	</g>
</g>
<g>
	<g id="CIRCLE_16_">
		
			<path fill="none" stroke="#FF0000" stroke-width="0.001" stroke-linecap="round" stroke-linejoin="round" stroke-miterlimit="10" d="
			M1035.583,815.841c16.899,0,30.6-13.699,30.6-30.6s-13.7-30.6-30.6-30.6c-16.9,0-30.601,13.699-30.601,30.6
			S1018.683,815.841,1035.583,815.841L1035.583,815.841z"/>
	</g>
	<g id="LWPOLYLINE_9_">
		
			<path fill="none" stroke="#FF0000" stroke-width="0.001" stroke-linecap="round" stroke-linejoin="round" stroke-miterlimit="10" d="
			M1156.271,785.241c2.834,0,5.582,0.965,7.794,2.734c5.378,4.305,6.249,12.154,1.944,17.531
			c-35.427,44.266-93.531,63.623-148.426,49.447c-31.79-8.207-54-36.881-54-69.713c0-39.764,32.235-72,72-72
			c39.764,0,72,32.236,72,72H1156.271z"/>
	</g>
</g>
<g>
	<g id="CIRCLE_25_">
		
			<path fill="none" stroke="#FF0000" stroke-width="0.001" stroke-linecap="round" stroke-linejoin="round" stroke-miterlimit="10" d="
			M1278.072,769.512c0-16.9-13.699-30.6-30.6-30.6c-16.899,0-30.6,13.699-30.6,30.6s13.7,30.6,30.6,30.6
			C1264.373,800.111,1278.072,786.412,1278.072,769.512L1278.072,769.512z"/>
	</g>
	<g id="CIRCLE_24_">
		
			<path fill="none" stroke="#FF0000" stroke-width="0.001" stroke-linecap="round" stroke-linejoin="round" stroke-miterlimit="10" d="
			M1337.473,733.512c0-49.705-40.293-90-90-90c-49.705,0-90,40.295-90,90c0,49.706,40.295,90,90,90
			C1297.18,823.512,1337.473,783.218,1337.473,733.512L1337.473,733.512z"/>
	</g>
</g>
<g>
	<g id="CIRCLE_27_">
		
			<path fill="none" stroke="#FF0000" stroke-width="0.001" stroke-linecap="round" stroke-linejoin="round" stroke-miterlimit="10" d="
			M1111.309,658.592c0-16.9-13.699-30.6-30.6-30.6c-16.899,0-30.6,13.699-30.6,30.6s13.7,30.6,30.6,30.6
			C1097.609,689.191,1111.309,675.492,1111.309,658.592L1111.309,658.592z"/>
	</g>
	<g id="CIRCLE_26_">
		
			<path fill="none" stroke="#FF0000" stroke-width="0.001" stroke-linecap="round" stroke-linejoin="round" stroke-miterlimit="10" d="
			M1170.709,622.592c0-49.705-40.293-90-90-90c-49.705,0-90,40.295-90,90c0,49.706,40.295,90,90,90
			C1130.416,712.592,1170.709,672.298,1170.709,622.592L1170.709,622.592z"/>
	</g>
</g>
<g>
	<g id="CIRCLE_29_">
		
			<path fill="none" stroke="#FF0000" stroke-width="0.001" stroke-linecap="round" stroke-linejoin="round" stroke-miterlimit="10" d="
			M525.446,783.902c0-16.9-13.699-30.6-30.6-30.6s-30.6,13.699-30.6,30.6s13.699,30.6,30.6,30.6S525.446,800.803,525.446,783.902
			L525.446,783.902z"/>
	</g>
	<g id="CIRCLE_28_">
		
			<path fill="none" stroke="#FF0000" stroke-width="0.001" stroke-linecap="round" stroke-linejoin="round" stroke-miterlimit="10" d="
			M584.846,747.902c0-49.705-40.293-90-90-90c-49.706,0-90,40.295-90,90c0,49.706,40.295,90,90,90
			C544.553,837.902,584.846,797.608,584.846,747.902L584.846,747.902z"/>
	</g>
</g>
<g>
	<g id="CIRCLE_31_">
		
			<path fill="none" stroke="#FF0000" stroke-width="0.001" stroke-linecap="round" stroke-linejoin="round" stroke-miterlimit="10" d="
			M820.839,587.29c0-16.9-13.699-30.6-30.6-30.6c-16.899,0-30.6,13.699-30.6,30.6s13.7,30.6,30.6,30.6
			C807.14,617.89,820.839,604.19,820.839,587.29L820.839,587.29z"/>
	</g>
	<g id="CIRCLE_30_">
		
			<path fill="none" stroke="#FF0000" stroke-width="0.001" stroke-linecap="round" stroke-linejoin="round" stroke-miterlimit="10" d="
			M880.238,551.29c0-49.705-40.292-90-89.999-90c-49.705,0-90,40.295-90,90c0,49.706,40.295,90,90,90
			C839.946,641.29,880.238,600.996,880.238,551.29L880.238,551.29z"/>
	</g>
</g>
<g>
	<g id="CIRCLE_32_">
		
			<path fill="none" stroke="#FF0000" stroke-width="0.001" stroke-linecap="round" stroke-linejoin="round" stroke-miterlimit="10" d="
			M667.336,603.9c0-16.898-13.699-30.6-30.6-30.6c-16.899,0-30.6,13.701-30.6,30.6c0,16.9,13.7,30.602,30.6,30.602
			C653.637,634.502,667.336,620.801,667.336,603.9L667.336,603.9z"/>
	</g>
	<g id="LWPOLYLINE_13_">
		
			<path fill="none" stroke="#FF0000" stroke-width="0.001" stroke-linecap="round" stroke-linejoin="round" stroke-miterlimit="10" d="
			M692.829,579.422c6.813,15.607,6.813,33.35,0,48.959c-13.521,30.979-49.594,45.131-80.571,31.611
			c-30.978-13.52-45.131-49.594-31.611-80.57l39.594-90.721c1.815-4.16,5.137-7.482,9.297-9.297
			c9.112-3.977,19.721,0.186,23.698,9.297L692.829,579.422z"/>
	</g>
</g>
<g>
	<g id="CIRCLE_33_">
		
			<path fill="none" stroke="#FF0000" stroke-width="0.001" stroke-linecap="round" stroke-linejoin="round" stroke-miterlimit="10" d="
			M266.961,522.506c0,16.899,13.699,30.6,30.6,30.6c16.899,0,30.6-13.7,30.6-30.6c0-16.9-13.7-30.601-30.6-30.601
			C280.66,491.905,266.961,505.605,266.961,522.506L266.961,522.506z"/>
	</g>
	<g id="LWPOLYLINE_14_">
		
			<path fill="none" stroke="#FF0000" stroke-width="0.001" stroke-linecap="round" stroke-linejoin="round" stroke-miterlimit="10" d="
			M241.469,546.985c-6.813-15.608-6.813-33.351,0-48.96c13.521-30.978,49.594-45.13,80.571-31.61
			c30.978,13.52,45.131,49.593,31.611,80.57l-39.594,90.72c-1.815,4.161-5.137,7.482-9.297,9.298
			c-9.112,3.977-19.721-0.187-23.698-9.298L241.469,546.985z"/>
	</g>
</g>
<g>
	<g id="CIRCLE_34_">
		
			<path fill="none" stroke="#FF0000" stroke-width="0.001" stroke-linecap="round" stroke-linejoin="round" stroke-miterlimit="10" d="
			M443.053,603.901c0-16.899-13.699-30.6-30.6-30.6c-16.899,0-30.6,13.7-30.6,30.6c0,16.9,13.7,30.601,30.6,30.601
			C429.354,634.502,443.053,620.802,443.053,603.901L443.053,603.901z"/>
	</g>
	<g id="LWPOLYLINE_15_">
		
			<path fill="none" stroke="#FF0000" stroke-width="0.001" stroke-linecap="round" stroke-linejoin="round" stroke-miterlimit="10" d="
			M468.545,579.422c6.813,15.608,6.813,33.351,0,48.96c-13.521,30.978-49.594,45.13-80.571,31.61
			c-30.978-13.52-45.131-49.593-31.611-80.57l39.594-90.72c1.815-4.161,5.137-7.482,9.297-9.298
			c9.112-3.977,19.721,0.187,23.698,9.298L468.545,579.422z"/>
	</g>
</g>
<g>
	<g id="CIRCLE_35_">
		
			<path fill="none" stroke="#FF0000" stroke-width="0.001" stroke-linecap="round" stroke-linejoin="round" stroke-miterlimit="10" d="
			M254.237,733.511c0-16.899-13.699-30.6-30.6-30.6c-16.899,0-30.6,13.7-30.6,30.6c0,16.9,13.7,30.601,30.6,30.601
			C240.538,764.111,254.237,750.411,254.237,733.511L254.237,733.511z"/>
	</g>
	<g id="LWPOLYLINE_16_">
		
			<path fill="none" stroke="#FF0000" stroke-width="0.001" stroke-linecap="round" stroke-linejoin="round" stroke-miterlimit="10" d="
			M279.729,709.031c6.813,15.608,6.813,33.351,0,48.96c-13.521,30.978-49.594,45.13-80.571,31.61
			c-30.978-13.52-45.131-49.593-31.611-80.57l39.594-90.72c1.815-4.161,5.137-7.482,9.297-9.298
			c9.112-3.977,19.721,0.187,23.698,9.298L279.729,709.031z"/>
	</g>
</g>
<g>
	<g id="CIRCLE_36_">
		
			<path fill="none" stroke="#FF0000" stroke-width="0.001" stroke-linecap="round" stroke-linejoin="round" stroke-miterlimit="10" d="
			M494.846,523.24c0,16.9,13.699,30.6,30.6,30.6c16.899,0,30.6-13.699,30.6-30.6s-13.7-30.6-30.6-30.6
			C508.545,492.641,494.846,506.34,494.846,523.24L494.846,523.24z"/>
	</g>
	<g id="LWPOLYLINE_17_">
		
			<path fill="none" stroke="#FF0000" stroke-width="0.001" stroke-linecap="round" stroke-linejoin="round" stroke-miterlimit="10" d="
			M469.354,547.721c-6.813-15.609-6.813-33.352,0-48.961c13.521-30.977,49.594-45.129,80.571-31.609
			c30.978,13.52,45.131,49.592,31.611,80.57l-39.594,90.719c-1.815,4.162-5.137,7.482-9.297,9.299
			c-9.112,3.977-19.721-0.188-23.698-9.299L469.354,547.721z"/>
	</g>
</g>
<g>
	<g id="CIRCLE_37_">
		
			<path fill="none" stroke="#FF0000" stroke-width="0.001" stroke-linecap="round" stroke-linejoin="round" stroke-miterlimit="10" d="
			M376.653,794.702c0-16.899-13.699-30.6-30.6-30.6c-16.899,0-30.6,13.7-30.6,30.6c0,16.9,13.7,30.601,30.6,30.601
			C362.954,825.303,376.653,811.603,376.653,794.702L376.653,794.702z"/>
	</g>
	<g id="LWPOLYLINE_18_">
		
			<path fill="none" stroke="#FF0000" stroke-width="0.001" stroke-linecap="round" stroke-linejoin="round" stroke-miterlimit="10" d="
			M402.146,770.223c6.813,15.608,6.813,33.351,0,48.96c-13.521,30.978-49.594,45.13-80.571,31.61
			c-30.978-13.52-45.131-49.593-31.611-80.57l39.594-90.72c1.815-4.161,5.137-7.482,9.297-9.298
			c9.112-3.977,19.721,0.187,23.698,9.298L402.146,770.223z"/>
	</g>
</g>
<g>
	<g id="LWPOLYLINE_10_">
		
			<rect x="1484" y="55.229" fill="none" stroke="#FF0000" stroke-width="0.001" stroke-linecap="round" stroke-linejoin="round" stroke-miterlimit="10" width="12.473" height="432"/>
	</g>
	<g id="CIRCLE_20_">
		
			<path fill="none" stroke="#FF0000" stroke-width="0.001" stroke-linecap="round" stroke-linejoin="round" stroke-miterlimit="10" d="
			M1538.232,496.589c0-3.182-2.579-5.761-5.76-5.761c-3.182,0-5.76,2.579-5.76,5.761c0,3.181,2.578,5.76,5.76,5.76
			C1535.653,502.349,1538.232,499.77,1538.232,496.589L1538.232,496.589z"/>
	</g>
	<g id="CIRCLE_19_">
		
			<path fill="none" stroke="#FF0000" stroke-width="0.001" stroke-linecap="round" stroke-linejoin="round" stroke-miterlimit="10" d="
			M1453.76,496.589c0-3.182-2.578-5.761-5.76-5.761s-5.76,2.579-5.76,5.761c0,3.181,2.578,5.76,5.76,5.76
			S1453.76,499.77,1453.76,496.589L1453.76,496.589z"/>
	</g>
	<g id="CIRCLE_18_">
		
			<path fill="none" stroke="#FF0000" stroke-width="0.001" stroke-linecap="round" stroke-linejoin="round" stroke-miterlimit="10" d="
			M1538.232,45.869c0-3.181-2.579-5.76-5.76-5.76c-3.182,0-5.76,2.579-5.76,5.76s2.578,5.76,5.76,5.76
			C1535.653,51.628,1538.232,49.05,1538.232,45.869L1538.232,45.869z"/>
	</g>
	<g id="CIRCLE_17_">
		
			<path fill="none" stroke="#FF0000" stroke-width="0.001" stroke-linecap="round" stroke-linejoin="round" stroke-miterlimit="10" d="
			M1453.76,45.869c0-3.181-2.578-5.76-5.76-5.76s-5.76,2.579-5.76,5.76s2.578,5.76,5.76,5.76S1453.76,49.05,1453.76,45.869
			L1453.76,45.869z"/>
	</g>
	<g id="LINE_17_">
		
			<line fill="none" stroke="#FF0000" stroke-width="0.001" stroke-linecap="round" stroke-linejoin="round" stroke-miterlimit="10" x1="1412" y1="18.508" x2="1412" y2="73.229"/>
	</g>
	<g id="SPLINE_5_">
		
			<polyline fill="none" stroke="#FF0000" stroke-width="0.001" stroke-linecap="round" stroke-linejoin="round" stroke-miterlimit="10" points="
			1412,73.229 1424.455,112.829 1434.461,152.429 1441.861,192.028 1446.442,231.628 1448,271.229 1446.442,310.828 
			1441.861,350.429 1434.461,390.028 1424.455,429.629 1412,469.229 		"/>
	</g>
	<g id="LINE_16_">
		
			<line fill="none" stroke="#FF0000" stroke-width="0.001" stroke-linecap="round" stroke-linejoin="round" stroke-miterlimit="10" x1="1412" y1="469.229" x2="1412" y2="523.948"/>
	</g>
	<g id="LINE_15_">
		
			<line fill="none" stroke="#FF0000" stroke-width="0.001" stroke-linecap="round" stroke-linejoin="round" stroke-miterlimit="10" x1="1412" y1="523.948" x2="1568.473" y2="523.948"/>
	</g>
	<g id="LINE_14_">
		
			<line fill="none" stroke="#FF0000" stroke-width="0.001" stroke-linecap="round" stroke-linejoin="round" stroke-miterlimit="10" x1="1568.473" y1="523.948" x2="1568.473" y2="469.229"/>
	</g>
	<g id="SPLINE_4_">
		
			<polyline fill="none" stroke="#FF0000" stroke-width="0.001" stroke-linecap="round" stroke-linejoin="round" stroke-miterlimit="10" points="
			1568.473,469.229 1556.018,429.629 1546.012,390.028 1538.611,350.429 1534.03,310.828 1532.473,271.229 1534.03,231.628 
			1538.611,192.028 1546.012,152.429 1556.018,112.829 1568.473,73.229 		"/>
	</g>
	<g id="LINE_13_">
		
			<line fill="none" stroke="#FF0000" stroke-width="0.001" stroke-linecap="round" stroke-linejoin="round" stroke-miterlimit="10" x1="1568.473" y1="73.229" x2="1568.473" y2="18.508"/>
	</g>
	<g id="LINE_12_">
		
			<line fill="none" stroke="#FF0000" stroke-width="0.001" stroke-linecap="round" stroke-linejoin="round" stroke-miterlimit="10" x1="1568.473" y1="18.508" x2="1412" y2="18.508"/>
	</g>
</g>
<g>
	<g id="LWPOLYLINE_11_">
		
			<rect x="1313.596" y="55.228" fill="none" stroke="#FF0000" stroke-width="0.001" stroke-linecap="round" stroke-linejoin="round" stroke-miterlimit="10" width="12.473" height="432"/>
	</g>
	<g id="CIRCLE_38_">
		
			<path fill="none" stroke="#FF0000" stroke-width="0.001" stroke-linecap="round" stroke-linejoin="round" stroke-miterlimit="10" d="
			M1367.828,496.588c0-3.182-2.579-5.76-5.76-5.76c-3.182,0-5.76,2.578-5.76,5.76s2.578,5.76,5.76,5.76
			C1365.249,502.348,1367.828,499.77,1367.828,496.588L1367.828,496.588z"/>
	</g>
	<g id="CIRCLE_23_">
		
			<path fill="none" stroke="#FF0000" stroke-width="0.001" stroke-linecap="round" stroke-linejoin="round" stroke-miterlimit="10" d="
			M1283.355,496.588c0-3.182-2.578-5.76-5.76-5.76s-5.76,2.578-5.76,5.76s2.578,5.76,5.76,5.76S1283.355,499.77,1283.355,496.588
			L1283.355,496.588z"/>
	</g>
	<g id="CIRCLE_22_">
		
			<path fill="none" stroke="#FF0000" stroke-width="0.001" stroke-linecap="round" stroke-linejoin="round" stroke-miterlimit="10" d="
			M1367.828,45.868c0-3.181-2.579-5.76-5.76-5.76c-3.182,0-5.76,2.579-5.76,5.76s2.578,5.76,5.76,5.76
			C1365.249,51.628,1367.828,49.049,1367.828,45.868L1367.828,45.868z"/>
	</g>
	<g id="CIRCLE_21_">
		
			<path fill="none" stroke="#FF0000" stroke-width="0.001" stroke-linecap="round" stroke-linejoin="round" stroke-miterlimit="10" d="
			M1283.355,45.868c0-3.181-2.578-5.76-5.76-5.76s-5.76,2.579-5.76,5.76s2.578,5.76,5.76,5.76S1283.355,49.049,1283.355,45.868
			L1283.355,45.868z"/>
	</g>
	<g id="LINE_23_">
		
			<line fill="none" stroke="#FF0000" stroke-width="0.001" stroke-linecap="round" stroke-linejoin="round" stroke-miterlimit="10" x1="1241.596" y1="18.508" x2="1241.596" y2="73.228"/>
	</g>
	<g id="SPLINE_7_">
		
			<polyline fill="none" stroke="#FF0000" stroke-width="0.001" stroke-linecap="round" stroke-linejoin="round" stroke-miterlimit="10" points="
			1241.596,73.228 1254.051,112.828 1264.057,152.428 1271.457,192.028 1276.038,231.628 1277.596,271.228 1276.038,310.828 
			1271.457,350.428 1264.057,390.028 1254.051,429.628 1241.596,469.229 		"/>
	</g>
	<g id="LINE_22_">
		
			<line fill="none" stroke="#FF0000" stroke-width="0.001" stroke-linecap="round" stroke-linejoin="round" stroke-miterlimit="10" x1="1241.596" y1="469.229" x2="1241.596" y2="523.947"/>
	</g>
	<g id="LINE_21_">
		
			<line fill="none" stroke="#FF0000" stroke-width="0.001" stroke-linecap="round" stroke-linejoin="round" stroke-miterlimit="10" x1="1241.596" y1="523.947" x2="1398.068" y2="523.947"/>
	</g>
	<g id="LINE_20_">
		
			<line fill="none" stroke="#FF0000" stroke-width="0.001" stroke-linecap="round" stroke-linejoin="round" stroke-miterlimit="10" x1="1398.068" y1="523.947" x2="1398.068" y2="469.229"/>
	</g>
	<g id="SPLINE_6_">
		
			<polyline fill="none" stroke="#FF0000" stroke-width="0.001" stroke-linecap="round" stroke-linejoin="round" stroke-miterlimit="10" points="
			1398.068,469.229 1385.613,429.628 1375.607,390.028 1368.207,350.428 1363.626,310.828 1362.068,271.228 1363.626,231.628 
			1368.207,192.028 1375.607,152.428 1385.613,112.828 1398.068,73.228 		"/>
	</g>
	<g id="LINE_19_">
		
			<line fill="none" stroke="#FF0000" stroke-width="0.001" stroke-linecap="round" stroke-linejoin="round" stroke-miterlimit="10" x1="1398.068" y1="73.228" x2="1398.068" y2="18.508"/>
	</g>
	<g id="LINE_18_">
		
			<line fill="none" stroke="#FF0000" stroke-width="0.001" stroke-linecap="round" stroke-linejoin="round" stroke-miterlimit="10" x1="1398.068" y1="18.508" x2="1241.596" y2="18.508"/>
	</g>
</g>
<g>
	<g id="CIRCLE_39_">
		
			<path fill="none" stroke="#FF0000" stroke-width="0.001" stroke-linecap="round" stroke-linejoin="round" stroke-miterlimit="10" d="
			M1408.888,815.842c16.9,0,30.6-13.699,30.6-30.6s-13.699-30.6-30.6-30.6s-30.6,13.699-30.6,30.6
			S1391.987,815.842,1408.888,815.842L1408.888,815.842z"/>
	</g>
	<g id="LWPOLYLINE_12_">
		
			<path fill="none" stroke="#FF0000" stroke-width="0.001" stroke-linecap="round" stroke-linejoin="round" stroke-miterlimit="10" d="
			M1529.575,785.242c2.834,0,5.582,0.965,7.794,2.734c5.378,4.305,6.249,12.154,1.944,17.531
			c-35.427,44.266-93.531,63.623-148.426,49.447c-31.789-8.207-54-36.881-54-69.713c0-39.764,32.236-72,72-72s72,32.236,72,72
			H1529.575z"/>
	</g>
</g>
<g>
	<g id="CIRCLE_40_">
		
			<path fill="none" stroke="#FF0000" stroke-width="0.001" stroke-linecap="round" stroke-linejoin="round" stroke-miterlimit="10" d="
			M1586.6,704.669c0-16.9-13.699-30.601-30.6-30.601s-30.6,13.7-30.6,30.601s13.699,30.6,30.6,30.6S1586.6,721.569,1586.6,704.669
			L1586.6,704.669z"/>
	</g>
	<g id="LWPOLYLINE_19_">
		
			<path fill="none" stroke="#FF0000" stroke-width="0.001" stroke-linecap="round" stroke-linejoin="round" stroke-miterlimit="10" d="
			M1556,583.98c0-2.834,0.965-5.582,2.734-7.793c4.305-5.379,12.154-6.25,17.531-1.945c44.266,35.428,63.623,93.531,49.447,148.427
			c-8.207,31.789-36.881,54-69.713,54c-39.764,0-72-32.236-72-72c0-39.765,32.236-72.001,72-72.001V583.98z"/>
	</g>
</g>
<g>
	<g id="CIRCLE_41_">
		
			<path fill="none" stroke="#FF0000" stroke-width="0.001" stroke-linecap="round" stroke-linejoin="round" stroke-miterlimit="10" d="
			M126.484,535.503c0,16.899,13.699,30.6,30.6,30.6c16.9,0,30.6-13.7,30.6-30.6c0-16.9-13.7-30.601-30.6-30.601
			C140.184,504.902,126.484,518.603,126.484,535.503L126.484,535.503z"/>
	</g>
	<g id="LWPOLYLINE_20_">
		
			<path fill="none" stroke="#FF0000" stroke-width="0.001" stroke-linecap="round" stroke-linejoin="round" stroke-miterlimit="10" d="
			M100.992,559.982c-6.813-15.608-6.813-33.351,0-48.96c13.521-30.978,49.594-45.13,80.572-31.61
			c30.978,13.52,45.131,49.593,31.61,80.57l-39.594,90.72c-1.815,4.161-5.137,7.482-9.297,9.298
			c-9.112,3.977-19.721-0.187-23.698-9.298L100.992,559.982z"/>
	</g>
</g>
</svg>
