0
SECTION
2
HEADER
9
$INSUNITS
70
1
9
$ACADVER
1
AC1014
9
$HANDSEED
5
FFFF
0
ENDSEC
0
SECTION
2
TABLES
0
TABLE
2
VPORT
5
8
100
AcDbSymbolTable
0
ENDTAB
0
TABLE
2
LTYPE
5
5
100
AcDbSymbolTable
0
LTYPE
5
14
100
AcDbSymbolTableRecord
100
AcDbLinetypeTableRecord
2
BYBLOCK
70
0
0
LTYPE
5
15
100
AcDbSymbolTableRecord
100
AcDbLinetypeTableRecord
2
BYLAYER
70
0
0
ENDTAB
0
TABLE
2
LAYER
5
2
100
AcDbSymbolTable
70
2
0
LAYER
5
50
100
AcDbSymbolTableRecord
100
AcDbLayerTableRecord
2
0
70
0
6
CONTINUOUS
0
ENDTAB
0
TABLE
2
STYLE
5
3
100
AcDbSymbolTable
70
1
0
STYLE
5
11
100
AcDbSymbolTableRecord
100
AcDbTextStyleTableRecord
2
STANDARD
70
0
0
ENDTAB
0
TABLE
2
VIEW
5
6
100
AcDbSymbolTable
70
0
0
ENDTAB
0
TABLE
2
UCS
5
7
100
AcDbSymbolTable
70
0
0
ENDTAB
0
TABLE
2
APPID
5
9
100
AcDbSymbolTable
70
2
0
APPID
5
12
100
AcDbSymbolTableRecord
100
AcDbRegAppTableRecord
2
ACAD
70
0
0
ENDTAB
0
TABLE
2
DIMSTYLE
5
A
100
AcDbSymbolTable
70
1
0
ENDTAB
0
TABLE
2
BLOCK_RECORD
5
1
100
AcDbSymbolTable
70
1
0
BLOCK_RECORD
5
1F
100
AcDbSymbolTableRecord
100
AcDbBlockTableRecord
2
*MODEL_SPACE
0
BLOCK_RECORD
5
1B
100
AcDbSymbolTableRecord
100
AcDbBlockTableRecord
2
*PAPER_SPACE
0
ENDTAB
0
ENDSEC
0
SECTION
2
BLOCKS
0
BLOCK
5
20
100
AcDbEntity
100
AcDbBlockBegin
2
*MODEL_SPACE
0
ENDBLK
5
21
100
AcDbEntity
100
AcDbBlockEnd
0
BLOCK
5
1C
100
AcDbEntity
100
AcDbBlockBegin
2
*PAPER_SPACE
0
ENDBLK
5
1D
100
AcDbEntity
100
AcDbBlockEnd
0
ENDSEC
0
SECTION
2
ENTITIES
0
LWPOLYLINE
5
100
100
AcDbEntity
8
0
100
AcDbPolyline
90
4
70
1
43
0.0
10
0.99999999999999956
20
6.5100000000000007
10
0.99999999999999978
20
0.51000000000000001
10
1.1732283464566926
20
0.51000000000000023
10
1.1732283464566924
20
6.5100000000000007
0
CIRCLE
5
101
100
AcDbEntity
8
0
100
AcDbCircle
10
1.673228346456693
20
0.38
30
0
40
0.079999999999999918
210
0
220
0
230
1
0
CIRCLE
5
102
100
AcDbEntity
8
0
100
AcDbCircle
10
0.49999999999999989
20
0.38
30
0
40
0.080000000000000016
210
0
220
0
230
1
0
CIRCLE
5
103
100
AcDbEntity
8
0
100
AcDbCircle
10
1.673228346456693
20
6.6399999999999997
30
0
40
0.080000000000000265
210
0
220
0
230
1
0
CIRCLE
5
104
100
AcDbEntity
8
0
100
AcDbCircle
10
0.49999999999999989
20
6.6399999999999997
30
0
40
0.080000000000000016
210
0
220
0
230
1
0
LINE
5
105
100
AcDbEntity
8
0
100
AcDbLine
10
-9.3073156735198786e-17
20
7.0199999999999996
30
0
11
-9.3073156735198786e-17
21
6.2599999999999998
31
0
0
SPLINE
5
106
100
AcDbEntity
8
0
100
AcDbSpline
70
4
71
5
72
21
73
15
74
0
42
0.000000001
43
0.0000000001
44
0.0000000001
40
0
40
0
40
0
40
0
40
0
40
0
40
0.10000000000000001
40
0.20000000000000001
40
0.30000000000000004
40
0.40000000000000002
40
0.5
40
0.59999999999999998
40
0.69999999999999996
40
0.79999999999999993
40
0.89999999999999991
40
1
40
1
40
1
40
1
40
1
40
1
41
1
41
1
41
1
41
1
41
1
41
1
41
1
41
1
41
1
41
1
41
1
41
1
41
1
41
1
41
1
10
-9.3073156735198786e-17
20
6.2599999999999998
30
0
10
0.037923804597326145
20
6.1500000000001718
30
0
10
0.110459546008415
20
5.9300000000004687
30
0
10
0.20932785926155245
20
5.6000000000007608
30
0
10
0.32095213811071882
20
5.1600000000008723
30
0
10
0.42453069472467797
20
4.6100000000007055
30
0
10
0.48894448196987017
20
4.0600000000003469
30
0
10
0.51099735678962876
20
3.5099999999999767
30
0
10
0.48894448196993828
20
2.9599999999997029
30
0
10
0.42453069472479738
20
2.4099999999995867
30
0
10
0.32095213811085638
20
1.8599999999996075
30
0
10
0.20932785926166492
20
1.4199999999997195
30
0
10
0.11045954600848193
20
1.0899999999998442
30
0
10
0.03792380459735048
20
0.86999999999994515
30
0
10
-9.3073156735198786e-17
20
0.76000000000000001
30
0
0
LINE
5
107
100
AcDbEntity
8
0
100
AcDbLine
10
-4.1052007237204374e-17
20
0.75999999999999968
30
0
11
-9.3073156735198786e-17
21
0
31
0
0
LINE
5
108
100
AcDbEntity
8
0
100
AcDbLine
10
-9.3073156735198786e-17
20
0
30
0
11
2.173228346456693
21
-2.6614371383044842e-16
31
0
0
LINE
5
109
100
AcDbEntity
8
0
100
AcDbLine
10
2.173228346456693
20
-2.6614371383044842e-16
30
0
11
2.173228346456693
21
0.76000000000000001
31
0
0
SPLINE
5
110
100
AcDbEntity
8
0
100
AcDbSpline
70
4
71
5
72
21
73
15
74
0
42
0.000000001
43
0.0000000001
44
0.0000000001
40
0
40
0
40
0
40
0
40
0
40
0
40
0.10000000000000001
40
0.20000000000000001
40
0.30000000000000004
40
0.40000000000000002
40
0.5
40
0.59999999999999998
40
0.69999999999999996
40
0.79999999999999993
40
0.89999999999999991
40
1
40
1
40
1
40
1
40
1
40
1
41
1
41
1
41
1
41
1
41
1
41
1
41
1
41
1
41
1
41
1
41
1
41
1
41
1
41
1
41
1
10
2.173228346456693
20
0.76000000000000001
30
0
10
2.1353045418590737
20
0.86999999999993449
30
0
10
2.0627688004474782
20
1.0899999999998067
30
0
10
1.9639004871938213
20
1.4199999999996205
30
0
10
1.8522762083443969
20
1.8599999999994132
30
0
10
1.7486976517306787
20
2.4099999999993438
30
0
10
1.6842838644860796
20
2.9599999999995132
30
0
10
1.6622309896670737
20
3.5099999999999514
30
0
10
1.6842838644874834
20
4.0600000000005876
30
0
10
1.748697651733137
20
4.6100000000012171
30
0
10
1.8522762083472308
20
5.1600000000015509
30
0
10
1.9639004871961567
20
5.6000000000013497
30
0
10
2.0627688004488802
20
5.9300000000008257
30
0
10
2.1353045418595853
20
6.1500000000003041
30
0
10
2.173228346456693
20
6.2599999999999998
30
0
0
LINE
5
111
100
AcDbEntity
8
0
100
AcDbLine
10
2.173228346456693
20
6.2599999999999989
30
0
11
2.173228346456693
21
7.0199999999999996
31
0
0
LINE
5
112
100
AcDbEntity
8
0
100
AcDbLine
10
2.173228346456693
20
7.0199999999999996
30
0
11
-9.3073156735198786e-17
21
7.0199999999999996
31
0
0
ENDSEC
0
SECTION
2
OBJECTS
0
DICTIONARY
5
C
100
AcDbDictionary
3
ACAD_GROUP
350
D
3
ACAD_MLINESTYLE
350
17
0
DICTIONARY
5
D
100
AcDbDictionary
0
DICTIONARY
5
1A
330
C
100
AcDbDictionary
0
DICTIONARY
5
17
100
AcDbDictionary
0
ENDSEC
0
EOF
